<svg xmlns="http://www.w3.org/2000/svg" xmlns:xlink="http://www.w3.org/1999/xlink" xml:space="preserve" version="1.1" style="shape-rendering:geometricPrecision;text-rendering:geometricPrecision;image-rendering:optimizeQuality;" viewBox="0 0 609 420" x="0px" y="0px" fill-rule="evenodd" clip-rule="evenodd"><defs><style type="text/css">
   
    .fil0 {fill:white;fill-rule:nonzero}
   
  </style></defs><g><path class="fil0" d="M0 257c0,-50 32,-94 79,-110 -19,-16 -30,-40 -30,-64 0,-46 37,-83 82,-83 46,0 83,37 83,83 0,24 -11,48 -30,64 17,5 32,15 45,28 14,-29 43,-48 75,-48 33,0 62,19 76,48 12,-13 28,-23 45,-28 -2,-2 -4,-4 -6,-6 -15,-15 -24,-36 -24,-58 0,-46 37,-83 82,-83 46,0 83,37 83,83 0,25 -11,48 -30,64 46,16 79,60 79,110l-26 0c0,-50 -41,-91 -91,-91l-30 0c-30,0 -58,15 -75,40l0 3c0,26 -11,48 -30,64 46,16 79,61 79,111l-26 0c0,-51 -41,-92 -91,-92l-30 0c-50,0 -91,41 -91,92l-25 0c0,-50 32,-95 79,-111 -19,-15 -30,-39 -30,-64l0 -3c-17,-25 -45,-40 -76,-40l-29 0c-51,0 -92,41 -92,91l-25 0zm304 -105c-31,0 -57,26 -57,57 0,32 26,58 57,58 32,0 58,-26 58,-58 0,-31 -26,-57 -58,-57zm173 -127c-31,0 -57,26 -57,58 0,15 6,30 17,40 10,11 24,17 40,17 32,0 58,-26 58,-57 0,-32 -26,-58 -58,-58zm-346 0c-31,0 -57,26 -57,58 0,31 26,57 57,57 32,0 58,-26 58,-57 0,-32 -26,-58 -58,-58z"/></g><text x="0" y="399" fill="#000000" font-size="5px" font-weight="bold" font-family="'Helvetica Neue', Helvetica, Arial-Unicode, Arial, Sans-serif">Created by Wilshon Athena</text><text x="0" y="404" fill="#000000" font-size="5px" font-weight="bold" font-family="'Helvetica Neue', Helvetica, Arial-Unicode, Arial, Sans-serif">from the Noun Project</text></svg>