<svg width="207" height="166" viewBox="0 0 207 166" fill="none" xmlns="http://www.w3.org/2000/svg">
<path d="M18.1994 33.1104H35.8926V28.5465H23.7349V22.2951H34.9338V17.7312H23.7349V11.4925H35.8414V6.9286H18.1994V33.1104Z" fill="white"/>
<path d="M44.1431 33.1104L46.0863 27.1403H55.5338L57.477 33.1104H63.4088L54.3832 6.9286H47.2497L38.2113 33.1104H44.1431ZM47.4926 22.8192L50.7142 12.9116H50.9187L54.1403 22.8192H47.4926Z" fill="white"/>
<path d="M79.5535 14.4584H84.8589C84.7822 9.79224 80.947 6.57065 75.1174 6.57065C69.3774 6.57065 65.1714 9.7411 65.197 14.4968C65.1842 18.3576 67.9072 20.5692 72.3305 21.6303L75.1814 22.3462C78.0322 23.0366 79.6174 23.8547 79.6302 25.6189C79.6174 27.5366 77.8021 28.8405 74.9896 28.8405C72.1132 28.8405 70.0422 27.511 69.8632 24.8903H64.5066C64.6473 30.5536 68.6998 33.4812 75.0535 33.4812C81.4456 33.4812 85.2041 30.4258 85.2169 25.6317C85.2041 21.2724 81.9186 18.9584 77.3674 17.9357L75.0152 17.3732C72.7396 16.8491 70.8348 16.0053 70.8731 14.126C70.8731 12.4385 72.3689 11.1985 75.0791 11.1985C77.7254 11.1985 79.349 12.4002 79.5535 14.4584Z" fill="white"/>
<path d="M87.3311 11.4925H95.3467V33.1104H100.818V11.4925H108.834V6.9286H87.3311V11.4925Z" fill="white"/>
<path d="M17.2022 55.4925H25.2179V77.1104H30.6894V55.4925H38.7051V50.9286H17.2022V55.4925Z" fill="white"/>
<path d="M41.6343 77.1104H59.3274V72.5465H47.1698V66.2951H58.3686V61.7312H47.1698V55.4925H59.2763V50.9286H41.6343V77.1104Z" fill="white"/>
<path d="M84.9644 50.9286H79.4544V67.3945H79.2243L67.9232 50.9286H63.0652V77.1104H68.6007V60.6317H68.7925L80.1831 77.1104H84.9644V50.9286Z" fill="white"/>
<path d="M110.825 50.9286H105.315V67.3945H105.085L93.7838 50.9286H88.9259V77.1104H94.4614V60.6317H94.6532L106.044 77.1104H110.825V50.9286Z" fill="white"/>
<path d="M114.787 77.1104H132.48V72.5465H120.322V66.2951H131.521V61.7312H120.322V55.4925H132.429V50.9286H114.787V77.1104Z" fill="white"/>
<path d="M150.421 58.4584H155.726C155.649 53.7922 151.814 50.5706 145.985 50.5706C140.245 50.5706 136.039 53.7411 136.064 58.4968C136.051 62.3576 138.774 64.5692 143.198 65.6303L146.048 66.3462C148.899 67.0366 150.485 67.8547 150.497 69.6189C150.485 71.5366 148.669 72.8405 145.857 72.8405C142.98 72.8405 140.909 71.511 140.73 68.8903H135.374C135.514 74.5536 139.567 77.4812 145.921 77.4812C152.313 77.4812 156.071 74.4258 156.084 69.6317C156.071 65.2723 152.786 62.9584 148.235 61.9357L145.882 61.3732C143.607 60.8491 141.702 60.0053 141.74 58.126C141.74 56.4385 143.236 55.1985 145.946 55.1985C148.593 55.1985 150.216 56.4002 150.421 58.4584Z" fill="white"/>
<path d="M173.398 58.4584H178.704C178.627 53.7922 174.792 50.5706 168.962 50.5706C163.222 50.5706 159.016 53.7411 159.042 58.4968C159.029 62.3576 161.752 64.5692 166.175 65.6303L169.026 66.3462C171.877 67.0366 173.462 67.8547 173.475 69.6189C173.462 71.5366 171.647 72.8405 168.835 72.8405C165.958 72.8405 163.887 71.511 163.708 68.8903H158.352C158.492 74.5536 162.545 77.4812 168.898 77.4812C175.291 77.4812 179.049 74.4258 179.062 69.6317C179.049 65.2723 175.764 62.9584 171.212 61.9357L168.86 61.3732C166.585 60.8491 164.68 60.0053 164.718 58.126C164.718 56.4385 166.214 55.1985 168.924 55.1985C171.57 55.1985 173.194 56.4002 173.398 58.4584Z" fill="white"/>
<path d="M182.173 77.1104H199.866V72.5465H187.709V66.2951H198.908V61.7312H187.709V55.4925H199.815V50.9286H182.173V77.1104Z" fill="white"/>
<path d="M22.7122 121.11L24.6554 115.14H34.1028L36.046 121.11H41.9778L32.9522 94.9286H25.8187L16.7804 121.11H22.7122ZM26.0616 110.819L29.2832 100.912H29.4877L32.7093 110.819H26.0616Z" fill="white"/>
<path d="M66.4162 94.9286H60.9063V111.395H60.6762L49.375 94.9286H44.5171V121.11H50.0526V104.632H50.2444L61.635 121.11H66.4162V94.9286Z" fill="white"/>
<path d="M75.5681 94.9286H69.2911L77.3323 108.02L69.1377 121.11H75.4786L80.8479 112.174H81.0525L86.4218 121.11H92.7882L84.6192 108.02L92.6093 94.9286H86.3578L81.0525 103.852H80.8479L75.5681 94.9286Z" fill="white"/>
<path d="M101.036 94.9286H95.5001V121.11H101.036V94.9286Z" fill="white"/>
<path d="M104.978 121.11H122.671V116.547H110.513V110.295H121.712V105.731H110.513V99.4925H122.62V94.9286H104.978V121.11Z" fill="white"/>
<path d="M125.412 99.4925H133.427V121.11H138.899V99.4925H146.915V94.9286H125.412V99.4925Z" fill="white"/>
<path d="M148.31 94.9286L157.859 111.855V121.11H163.357V111.855L172.906 94.9286H166.706L160.736 106.204H160.48L154.51 94.9286H148.31Z" fill="white"/>
<path d="M24.0929 165.11H29.4877L34.4608 147.993H34.6653L39.6511 165.11H45.046L52.5375 138.929H46.4906L42.1568 157.159H41.9267L37.1582 138.929H31.9806L27.1994 157.12H26.9821L22.6483 138.929H16.6014L24.0929 165.11Z" fill="white"/>
<path d="M54.8882 165.11H72.5814V160.547H60.4237V154.295H71.6226V149.731H60.4237V143.493H72.5302V138.929H54.8882V165.11Z" fill="white"/>
<path d="M76.3191 165.11H93.0791V160.547H81.8547V138.929H76.3191V165.11Z" fill="white"/>
<path d="M96.1329 165.11H112.893V160.547H101.668V138.929H96.1329V165.11Z" fill="white"/>
<path d="M137.846 138.929H132.336V155.395H132.106L120.805 138.929H115.947V165.11H121.482V148.632H121.674L133.065 165.11H137.846V138.929Z" fill="white"/>
<path d="M141.807 165.11H159.501V160.547H147.343V154.295H158.542V149.731H147.343V143.493H159.449V138.929H141.807V165.11Z" fill="white"/>
<path d="M177.441 146.458H182.747C182.67 141.792 178.835 138.571 173.005 138.571C167.265 138.571 163.059 141.741 163.085 146.497C163.072 150.358 165.795 152.569 170.218 153.63L173.069 154.346C175.92 155.037 177.505 155.855 177.518 157.619C177.505 159.537 175.69 160.841 172.878 160.841C170.001 160.841 167.93 159.511 167.751 156.89H162.395C162.535 162.554 166.588 165.481 172.941 165.481C179.334 165.481 183.092 162.426 183.105 157.632C183.092 153.272 179.807 150.958 175.255 149.936L172.903 149.373C170.628 148.849 168.723 148.005 168.761 146.126C168.761 144.439 170.257 143.199 172.967 143.199C175.613 143.199 177.237 144.4 177.441 146.458Z" fill="white"/>
<path d="M200.419 146.458H205.725C205.648 141.792 201.813 138.571 195.983 138.571C190.243 138.571 186.037 141.741 186.063 146.497C186.05 150.358 188.773 152.569 193.196 153.63L196.047 154.346C198.898 155.037 200.483 155.855 200.496 157.619C200.483 159.537 198.668 160.841 195.855 160.841C192.979 160.841 190.908 159.511 190.729 156.89H185.372C185.513 162.554 189.566 165.481 195.919 165.481C202.311 165.481 206.07 162.426 206.083 157.632C206.07 153.272 202.784 150.958 198.233 149.936L195.881 149.373C193.605 148.849 191.701 148.005 191.739 146.126C191.739 144.439 193.235 143.199 195.945 143.199C198.591 143.199 200.215 144.4 200.419 146.458Z" fill="white"/>
<path d="M153.079 8.36457L151.634 14.536L156.774 17.6737L150.741 18.3502L149.297 24.5216L147.013 18.7683L140.981 19.4448L145.602 15.2125L143.318 9.45916L148.458 12.5968L153.079 8.36457Z" fill="white"/>
<path d="M153.079 8.36457L151.634 14.536L156.774 17.6737L150.741 18.3502L149.297 24.5216L147.013 18.7683L140.981 19.4448L145.602 15.2125L143.318 9.45916L148.458 12.5968L153.079 8.36457Z" fill="white"/>
<path d="M153.079 8.36457L151.634 14.536L156.774 17.6737L150.741 18.3502L149.297 24.5216L147.013 18.7683L140.981 19.4448L145.602 15.2125L143.318 9.45916L148.458 12.5968L153.079 8.36457Z" fill="white"/>
<path d="M153.079 8.36457L151.634 14.536L156.774 17.6737L150.741 18.3502L149.297 24.5216L147.013 18.7683L140.981 19.4448L145.602 15.2125L143.318 9.45916L148.458 12.5968L153.079 8.36457Z" fill="white"/>
<path d="M140.608 20.0053L141.009 26.0814L146.487 27.3882L141.256 29.8367L141.657 35.9127L138.023 31.3499L132.792 33.7983L135.778 28.5299L132.144 23.967L137.622 25.2738L140.608 20.0053Z" fill="white"/>
<path d="M140.608 20.0053L141.009 26.0814L146.487 27.3882L141.256 29.8367L141.657 35.9127L138.023 31.3499L132.792 33.7983L135.778 28.5299L132.144 23.967L137.622 25.2738L140.608 20.0053Z" fill="white"/>
<path d="M140.608 20.0053L141.009 26.0814L146.487 27.3882L141.256 29.8367L141.657 35.9127L138.023 31.3499L132.792 33.7983L135.778 28.5299L132.144 23.967L137.622 25.2738L140.608 20.0053Z" fill="white"/>
<path d="M140.608 20.0053L141.009 26.0814L146.487 27.3882L141.256 29.8367L141.657 35.9127L138.023 31.3499L132.792 33.7983L135.778 28.5299L132.144 23.967L137.622 25.2738L140.608 20.0053Z" fill="white"/>
<path d="M133.196 5.11419L135.951 10.5504L141.855 9.54848L137.654 13.9102L140.41 19.3464L135.058 16.6059L130.857 20.9676L131.75 14.9121L126.398 12.1716L132.302 11.1696L133.196 5.11419Z" fill="white"/>
<path d="M133.196 5.11419L135.951 10.5504L141.855 9.54848L137.654 13.9102L140.41 19.3464L135.058 16.6059L130.857 20.9676L131.75 14.9121L126.398 12.1716L132.302 11.1696L133.196 5.11419Z" fill="white"/>
<path d="M133.196 5.11419L135.951 10.5504L141.855 9.54848L137.654 13.9102L140.41 19.3464L135.058 16.6059L130.857 20.9676L131.75 14.9121L126.398 12.1716L132.302 11.1696L133.196 5.11419Z" fill="white"/>
<path d="M133.196 5.11419L135.951 10.5504L141.855 9.54848L137.654 13.9102L140.41 19.3464L135.058 16.6059L130.857 20.9676L131.75 14.9121L126.398 12.1716L132.302 11.1696L133.196 5.11419Z" fill="white"/>
<path fill-rule="evenodd" clip-rule="evenodd" d="M140.694 37.4479C150.192 37.4479 157.97 29.5562 157.97 19.7239C157.97 9.89164 150.192 2 140.694 2C131.197 2 123.419 9.89164 123.419 19.7239C123.419 29.5562 131.197 37.4479 140.694 37.4479ZM140.694 39.4479C151.34 39.4479 159.97 30.6172 159.97 19.7239C159.97 8.83071 151.34 0 140.694 0C130.049 0 121.419 8.83071 121.419 19.7239C121.419 30.6172 130.049 39.4479 140.694 39.4479Z" fill="white"/>
<path d="M0 5.09203H6.96667V166H0V5.09203Z" fill="white"/>
<path d="M6.96667 5.09203H9.95239V166H6.96667V5.09203Z" fill="#C4C4C4"/>
</svg>
