<svg width="222" height="166" viewBox="0 0 222 166" fill="none" xmlns="http://www.w3.org/2000/svg">
<path d="M18.1921 33.1104H35.8782V28.5465H23.7254V22.2951H34.9198V17.7312H23.7254V11.4925H35.8271V6.9286H18.1921V33.1104Z" fill="white"/>
<path d="M44.1254 33.1104L46.0679 27.1403H55.5115L57.4539 33.1104H63.3833L54.3614 6.9286H47.2307L38.196 33.1104H44.1254ZM47.4735 22.8192L50.6938 12.9116H50.8983L54.1186 22.8192H47.4735Z" fill="white"/>
<path d="M79.5216 14.4584H84.8249C84.7482 9.79224 80.9145 6.57065 75.0873 6.57065C69.3496 6.57065 65.1453 9.7411 65.1708 14.4968C65.1581 18.3576 67.88 20.5692 72.3015 21.6303L75.1512 22.3462C78.0009 23.0366 79.5855 23.8547 79.5983 25.6189C79.5855 27.5366 77.7709 28.8405 74.9595 28.8405C72.0843 28.8405 70.0141 27.511 69.8352 24.8903H64.4808C64.6214 30.5536 68.6723 33.4812 75.0234 33.4812C81.4129 33.4812 85.1699 30.4258 85.1827 25.6317C85.1699 21.2724 81.8857 18.9584 77.3364 17.9357L74.9851 17.3732C72.7104 16.8491 70.8064 16.0053 70.8447 14.126C70.8447 12.4385 72.3398 11.1985 75.049 11.1985C77.6942 11.1985 79.3172 12.4002 79.5216 14.4584Z" fill="white"/>
<path d="M87.2961 11.4925H95.3085V33.1104H100.778V11.4925H108.79V6.9286H87.2961V11.4925Z" fill="white"/>
<path d="M17.1953 55.4925H25.2077V77.1104H30.6771V55.4925H38.6896V50.9286H17.1953V55.4925Z" fill="white"/>
<path d="M41.6176 77.1104H59.3037V72.5465H47.1509V66.2951H58.3452V61.7312H47.1509V55.4925H59.2525V50.9286H41.6176V77.1104Z" fill="white"/>
<path d="M84.9303 50.9286H79.4226V67.3945H79.1926L67.896 50.9286H63.04V77.1104H68.5732V60.6317H68.7649L80.151 77.1104H84.9303V50.9286Z" fill="white"/>
<path d="M110.781 50.9286H105.273V67.3945H105.043L93.7462 50.9286H88.8902V77.1104H94.4235V60.6317H94.6152L106.001 77.1104H110.781V50.9286Z" fill="white"/>
<path d="M114.741 77.1104H132.427V72.5465H120.274V66.2951H131.468V61.7312H120.274V55.4925H132.375V50.9286H114.741V77.1104Z" fill="white"/>
<path d="M150.36 58.4584H155.664C155.587 53.7922 151.753 50.5706 145.926 50.5706C140.188 50.5706 135.984 53.7411 136.01 58.4968C135.997 62.3576 138.719 64.5692 143.14 65.6303L145.99 66.3462C148.84 67.0366 150.424 67.8547 150.437 69.6189C150.424 71.5366 148.61 72.8405 145.798 72.8405C142.923 72.8405 140.853 71.511 140.674 68.8903H135.319C135.46 74.5536 139.511 77.4812 145.862 77.4812C152.252 77.4812 156.009 74.4258 156.021 69.6317C156.009 65.2723 152.724 62.9584 148.175 61.9357L145.824 61.3732C143.549 60.8491 141.645 60.0053 141.683 58.126C141.683 56.4385 143.179 55.1985 145.888 55.1985C148.533 55.1985 150.156 56.4002 150.36 58.4584Z" fill="white"/>
<path d="M173.329 58.4584H178.632C178.556 53.7922 174.722 50.5706 168.895 50.5706C163.157 50.5706 158.953 53.7411 158.978 58.4968C158.965 62.3576 161.687 64.5692 166.109 65.6303L168.959 66.3462C171.808 67.0366 173.393 67.8547 173.406 69.6189C173.393 71.5366 171.578 72.8405 168.767 72.8405C165.892 72.8405 163.821 71.511 163.643 68.8903H158.288C158.429 74.5536 162.48 77.4812 168.831 77.4812C175.22 77.4812 178.977 74.4258 178.99 69.6317C178.977 65.2723 175.693 62.9584 171.144 61.9357L168.792 61.3732C166.518 60.8491 164.614 60.0053 164.652 58.126C164.652 56.4385 166.147 55.1985 168.856 55.1985C171.502 55.1985 173.125 56.4002 173.329 58.4584Z" fill="white"/>
<path d="M182.1 77.1104H199.786V72.5465H187.633V66.2951H198.828V61.7312H187.633V55.4925H199.735V50.9286H182.1V77.1104Z" fill="white"/>
<path d="M22.7031 121.11L24.6455 115.14H34.0891L36.0315 121.11H41.961L32.939 94.9286H25.8084L16.7736 121.11H22.7031ZM26.0512 110.819L29.2715 100.912H29.4759L32.6962 110.819H26.0512Z" fill="white"/>
<path d="M66.3896 94.9286H60.8819V111.395H60.6518L49.3552 94.9286H44.4992V121.11H50.0325V104.632H50.2242L61.6103 121.11H66.3896V94.9286Z" fill="white"/>
<path d="M75.5378 94.9286H69.2633L77.3013 108.02L69.11 121.11H75.4483L80.8155 112.174H81.02L86.3871 121.11H92.751L84.5853 108.02L92.5721 94.9286H86.3232L81.02 103.852H80.8155L75.5378 94.9286Z" fill="white"/>
<path d="M100.995 94.9286H95.4618V121.11H100.995V94.9286Z" fill="white"/>
<path d="M104.936 121.11H122.622V116.547H110.469V110.295H121.664V105.731H110.469V99.4925H122.571V94.9286H104.936V121.11Z" fill="white"/>
<path d="M125.361 99.4925H133.374V121.11H138.843V99.4925H146.856V94.9286H125.361V99.4925Z" fill="white"/>
<path d="M148.25 94.9286L157.796 111.855V121.11H163.291V111.855L172.837 94.9286H166.639L160.671 106.204H160.416L154.448 94.9286H148.25Z" fill="white"/>
<path d="M24.0832 165.11H29.4759L34.4469 147.993H34.6514L39.6352 165.11H45.0279L52.5164 138.929H46.4719L42.1399 157.159H41.9099L37.1433 138.929H31.9678L27.1885 157.12H26.9712L22.6392 138.929H16.5947L24.0832 165.11Z" fill="white"/>
<path d="M54.8662 165.11H72.5523V160.547H60.3995V154.295H71.5938V149.731H60.3995V143.493H72.5011V138.929H54.8662V165.11Z" fill="white"/>
<path d="M76.2885 165.11H93.0418V160.547H81.8218V138.929H76.2885V165.11Z" fill="white"/>
<path d="M96.0944 165.11H112.848V160.547H101.628V138.929H96.0944V165.11Z" fill="white"/>
<path d="M137.791 138.929H132.283V155.395H132.053L120.756 138.929H115.9V165.11H121.434V148.632H121.625L133.011 165.11H137.791V138.929Z" fill="white"/>
<path d="M141.75 165.11H159.437V160.547H147.284V154.295H158.478V149.731H147.284V143.493H159.385V138.929H141.75V165.11Z" fill="white"/>
<path d="M177.37 146.458H182.674C182.597 141.792 178.763 138.571 172.936 138.571C167.198 138.571 162.994 141.741 163.02 146.497C163.007 150.358 165.729 152.569 170.15 153.63L173 154.346C175.85 155.037 177.434 155.855 177.447 157.619C177.434 159.537 175.62 160.841 172.808 160.841C169.933 160.841 167.863 159.511 167.684 156.89H162.329C162.47 162.554 166.521 165.481 172.872 165.481C179.262 165.481 183.019 162.426 183.031 157.632C183.019 153.272 179.734 150.958 175.185 149.936L172.834 149.373C170.559 148.849 168.655 148.005 168.693 146.126C168.693 144.439 170.189 143.199 172.898 143.199C175.543 143.199 177.166 144.4 177.37 146.458Z" fill="white"/>
<path d="M200.339 146.458H205.642C205.566 141.792 201.732 138.571 195.905 138.571C190.167 138.571 185.963 141.741 185.988 146.497C185.975 150.358 188.697 152.569 193.119 153.63L195.969 154.346C198.818 155.037 200.403 155.855 200.416 157.619C200.403 159.537 198.588 160.841 195.777 160.841C192.902 160.841 190.831 159.511 190.652 156.89H185.298C185.439 162.554 189.49 165.481 195.841 165.481C202.23 165.481 205.987 162.426 206 157.632C205.987 153.272 202.703 150.958 198.154 149.936L195.802 149.373C193.528 148.849 191.624 148.005 191.662 146.126C191.662 144.439 193.157 143.199 195.866 143.199C198.512 143.199 200.134 144.4 200.339 146.458Z" fill="white"/>
<path d="M203.5 77.1104H221.186V72.5465H209.033V66.2951H220.228V61.7312H209.033V55.4925H221.135V50.9286H203.5V77.1104Z" fill="white"/>
<path d="M153.018 8.36457L151.573 14.536L156.711 17.6737L150.681 18.3502L149.237 24.5216L146.954 18.7683L140.924 19.4448L145.543 15.2125L143.261 9.45916L148.398 12.5968L153.018 8.36457Z" fill="white"/>
<path d="M153.018 8.36457L151.573 14.536L156.711 17.6737L150.681 18.3502L149.237 24.5216L146.954 18.7683L140.924 19.4448L145.543 15.2125L143.261 9.45916L148.398 12.5968L153.018 8.36457Z" fill="white"/>
<path d="M153.018 8.36457L151.573 14.536L156.711 17.6737L150.681 18.3502L149.237 24.5216L146.954 18.7683L140.924 19.4448L145.543 15.2125L143.261 9.45916L148.398 12.5968L153.018 8.36457Z" fill="white"/>
<path d="M153.018 8.36457L151.573 14.536L156.711 17.6737L150.681 18.3502L149.237 24.5216L146.954 18.7683L140.924 19.4448L145.543 15.2125L143.261 9.45916L148.398 12.5968L153.018 8.36457Z" fill="white"/>
<path d="M140.551 20.0053L140.952 26.0814L146.429 27.3882L141.2 29.8367L141.601 35.9127L137.968 31.3499L132.739 33.7983L135.723 28.5299L132.091 23.967L137.567 25.2738L140.551 20.0053Z" fill="white"/>
<path d="M140.551 20.0053L140.952 26.0814L146.429 27.3882L141.2 29.8367L141.601 35.9127L137.968 31.3499L132.739 33.7983L135.723 28.5299L132.091 23.967L137.567 25.2738L140.551 20.0053Z" fill="white"/>
<path d="M140.551 20.0053L140.952 26.0814L146.429 27.3882L141.2 29.8367L141.601 35.9127L137.968 31.3499L132.739 33.7983L135.723 28.5299L132.091 23.967L137.567 25.2738L140.551 20.0053Z" fill="white"/>
<path d="M140.551 20.0053L140.952 26.0814L146.429 27.3882L141.2 29.8367L141.601 35.9127L137.968 31.3499L132.739 33.7983L135.723 28.5299L132.091 23.967L137.567 25.2738L140.551 20.0053Z" fill="white"/>
<path d="M133.142 5.11419L135.897 10.5504L141.798 9.54848L137.599 13.9102L140.354 19.3464L135.004 16.6059L130.805 20.9676L131.697 14.9121L126.348 12.1716L132.249 11.1696L133.142 5.11419Z" fill="white"/>
<path d="M133.142 5.11419L135.897 10.5504L141.798 9.54848L137.599 13.9102L140.354 19.3464L135.004 16.6059L130.805 20.9676L131.697 14.9121L126.348 12.1716L132.249 11.1696L133.142 5.11419Z" fill="white"/>
<path d="M133.142 5.11419L135.897 10.5504L141.798 9.54848L137.599 13.9102L140.354 19.3464L135.004 16.6059L130.805 20.9676L131.697 14.9121L126.348 12.1716L132.249 11.1696L133.142 5.11419Z" fill="white"/>
<path d="M133.142 5.11419L135.897 10.5504L141.798 9.54848L137.599 13.9102L140.354 19.3464L135.004 16.6059L130.805 20.9676L131.697 14.9121L126.348 12.1716L132.249 11.1696L133.142 5.11419Z" fill="white"/>
<path fill-rule="evenodd" clip-rule="evenodd" d="M140.638 37.4479C150.132 37.4479 157.906 29.5562 157.906 19.7239C157.906 9.89164 150.132 2 140.638 2C131.144 2 123.37 9.89164 123.37 19.7239C123.37 29.5562 131.144 37.4479 140.638 37.4479ZM140.638 39.4479C151.279 39.4479 159.905 30.6172 159.905 19.7239C159.905 8.83071 151.279 0 140.638 0C129.997 0 121.37 8.83071 121.37 19.7239C121.37 30.6172 129.997 39.4479 140.638 39.4479Z" fill="white"/>
<path d="M0 5.09203H6.96387V166H0V5.09203Z" fill="white"/>
<path d="M6.96387 5.09203H9.94838V166H6.96387V5.09203Z" fill="#C4C4C4"/>
</svg>
