<svg xmlns:dc="http://purl.org/dc/elements/1.1/" xmlns:cc="http://creativecommons.org/ns#" xmlns:rdf="http://www.w3.org/1999/02/22-rdf-syntax-ns#" xmlns:svg="http://www.w3.org/2000/svg" xmlns="http://www.w3.org/2000/svg" xmlns:sodipodi="http://sodipodi.sourceforge.net/DTD/sodipodi-0.dtd" xmlns:inkscape="http://www.inkscape.org/namespaces/inkscape" version="1.1" x="0px" y="0px" viewBox="0 0 100 125">
    <g transform="translate(0,-952.36218)">
        <path style="text-indent:0;text-transform:none;direction:ltr;block-progression:tb;baseline-shift:baseline;color:#000000;enable-background:accumulate;" d="m 17,974.36216 c -4.3973,0 -8,3.60273 -8,8.00005 l 0,39.99999 c 0,4.3973 3.6027,8 8,8 l 66,0 c 4.3973,0 8,-3.6027 8,-8 l 0,-39.99999 c 0,-4.39732 -3.6027,-8.00005 -8,-8.00005 l -66,0 z m 0,4.00005 66,0 c 0.5779,0 1.1031,0.1342 1.5938,0.3438 L 52.5,1007.3622 c -1.516,1.3538 -3.4188,1.354 -4.9375,0 L 15.4062,978.70601 c 0.4907,-0.2096 1.0159,-0.3438 1.5938,-0.3438 z m -3.9688,3.5938 23,20.49999 -22.5937,21.7187 C 13.1733,1023.6365 13,1023.0153 13,1022.3622 l 0,-39.99999 c 0,-0.14 0.018,-0.2704 0.031,-0.4062 z m 73.9376,0 c 0.013,0.1358 0.031,0.2662 0.031,0.4062 l 0,39.99999 c 0,0.6531 -0.1733,1.2743 -0.4375,1.8125 l -22.5313,-21.75 22.9376,-20.46869 z m -25.9376,23.15619 22.0626,21.25 c -0.032,7e-4 -0.062,0 -0.094,0 l -66,0 c -0.032,0 -0.062,7e-4 -0.094,0 l 22.125,-21.2188 5.875,5.2188 c 2.926,2.6087 7.3247,2.6125 10.25,0 l 5.875,-5.25 z" fill="white" fill-opacity="1" stroke="none" marker="none" visibility="visible" display="inline" overflow="visible" />
    </g>
</svg>