<svg xmlns="http://www.w3.org/2000/svg" xmlns:xlink="http://www.w3.org/1999/xlink" viewBox="0 0 24 23" version="1.1" x="0px" y="0px">
    <title>symbol/lightning-book</title>
    <desc>Created with Sketch.</desc>
    <g stroke="none" stroke-width="1" fill="none" fill-rule="evenodd">
        <path d="M18,6 L6,6 C5.63573235,6 5.29418643,5.90262301 5,5.73246242 L5,19 C5,19.5524608 5.44774538,20 6,20 L18,20 L18,6 Z M18.8535534,5.14644661 C18.9440356,5.23692881 19,5.36192881 19,5.5 L19,20.5 C19,20.7761424 18.7761424,21 18.5,21 L6,21 C4.89556369,21 4,20.1048486 4,19 L4,4 C4,2.89515137 4.89556369,2 6,2 L17.5,2 C17.7761424,2 18,2.22385763 18,2.5 L18,5 L18.5,5 C18.6380712,5 18.7630712,5.05596441 18.8535534,5.14644661 Z M12.8897309,11.8173759 L14.6856953,12.5357617 C15.0862629,12.6959887 15.1094845,13.2542747 14.7236068,13.4472136 L7.7236068,16.9472136 C7.21628543,17.2008743 6.74537385,16.5475194 7.14644661,16.1464466 L10.1102691,13.1826241 L8.31430466,12.4642383 C7.91373715,12.3040113 7.89051547,11.7457253 8.2763932,11.5527864 L15.2763932,8.0527864 C15.7837146,7.79912572 16.2546261,8.45248063 15.8535534,8.85355339 L12.8897309,11.8173759 Z M11.3535534,13.3535534 L10.0322476,14.6748592 L13.2805184,13.0507238 L11.8143047,12.4642383 C11.4810208,12.3309248 11.3926252,11.9002681 11.6464466,11.6464466 L12.9677524,10.3251408 L9.71948164,11.9492762 L11.1856953,12.5357617 C11.5189792,12.6690752 11.6073748,13.0997319 11.3535534,13.3535534 Z M17,5 L17,3 L6,3 C5.44774538,3 5,3.44753924 5,4 C5,4.55246076 5.44774538,5 6,5 L17,5 Z" fill="white" fill-rule="nonzero" />
    </g>
    <text x="0" y="39" fill="#000000" font-size="5px" font-weight="bold" font-family="'Helvetica Neue', Helvetica, Arial-Unicode, Arial, Sans-serif">Created by Travis Avery</text>
    <text x="0" y="44" fill="#000000" font-size="5px" font-weight="bold" font-family="'Helvetica Neue', Helvetica, Arial-Unicode, Arial, Sans-serif">from the Noun Project</text>
</svg>